<svg width="140" height="43" viewBox="0 0 140 43" fill="none" xmlns="http://www.w3.org/2000/svg">
<path d="M28.235 20.1037C24.357 20.3875 21.4748 23.8187 19.7288 27.0517C17.0892 31.9348 15.8405 37.2863 15.7012 42.8928L13.2504 42.9L13.2421 17.3908C13.7715 16.3589 14.144 15.4404 15.1295 14.4106L15.2224 26.8525C18.5029 22.3719 22.4056 19.1997 28.1008 19.0842C28.2618 19.3473 28.3237 19.8168 28.235 20.1037Z" fill="white"/>
<path d="M13.7591 14.9093C8.76869 24.1327 0.123209 24.5846 0.0014415 23.4939C-0.0233249 23.2751 0.275934 22.7777 0.522565 22.7736C5.33031 22.689 8.43744 18.9833 10.1185 14.8309C11.7272 10.859 12.3815 6.68691 12.5786 2.4137L12.69 1.99966e-05L15.179 0.0609037L15.1893 12.2655L13.7591 14.9093Z" fill="white"/>
<path d="M87.6003 12.366H79.6353L77.2323 18.9H75.7473L82.6863 0H84.4143L91.6503 18.9H90.0573L87.6003 12.366ZM80.1483 11.016H87.1143C85.0083 5.4 83.9283 2.7 83.5503 1.431H83.5233C83.0643 2.862 81.8493 6.21 80.1483 11.016Z" fill="white"/>
<path d="M59.2163 18.9H57.7313V0H59.8913C62.8343 4.536 69.7463 15.093 70.9343 17.145H70.9613C70.7993 14.418 70.8263 11.637 70.8263 8.559V0H72.3113V18.9H70.3133C67.5053 14.526 60.4853 3.537 59.1353 1.458H59.1083C59.2433 3.942 59.2163 6.696 59.2163 10.125V18.9Z" fill="white"/>
<path d="M50.7177 0H52.1757V18.9H50.7177V0Z" fill="white"/>
<path d="M36.1893 18.9V0H37.6473V17.55H47.7993L47.5293 18.9H36.1893Z" fill="white"/>
<path d="M134.958 38.094H128.586L127.128 42.9H123.888C124.482 41.118 129.018 26.403 129.693 24.378H133.905L139.98 42.9H136.524L134.958 38.094ZM129.261 35.34H134.283C132.987 31.236 132.123 28.536 131.718 26.889H131.691C131.205 28.995 130.314 31.884 129.261 35.34Z" fill="white"/>
<path d="M118.263 24.378H121.53V42.9H118.263V24.378Z" fill="white"/>
<path d="M107.725 34.989H104.944V42.9H101.731V24.378H108.94C112.369 24.378 114.799 26.052 114.799 29.292C114.799 31.884 113.368 33.099 111.856 33.639C113.719 34.314 114.448 35.799 114.448 38.175V38.607C114.448 40.281 114.529 41.847 114.691 42.9H111.532C111.262 42.144 111.181 40.74 111.181 38.58V38.121C111.181 35.826 110.344 34.989 107.725 34.989ZM104.944 26.997V32.37H107.968C109.993 32.37 111.532 31.803 111.532 29.562C111.532 27.753 110.263 26.997 108.508 26.997H104.944Z" fill="white"/>
<path d="M94.2737 38.094H87.9017L86.4437 42.9H83.2037C83.7977 41.118 88.3337 26.403 89.0087 24.378H93.2207L99.2957 42.9H95.8397L94.2737 38.094ZM88.5767 35.34H93.5987C92.3027 31.236 91.4387 28.536 91.0337 26.889H91.0067C90.5207 28.995 89.6297 31.884 88.5767 35.34Z" fill="white"/>
<path d="M68.3235 42.9V24.378H71.5365V33.18C73.5345 30.723 76.6395 26.943 78.7455 24.378H82.6605L76.1265 31.911L83.0385 42.9H79.1235L73.8585 34.071L71.5365 36.582V42.9H68.3235Z" fill="white"/>
<path d="M60.8664 38.094H54.4944L53.0364 42.9H49.7964C50.3904 41.118 54.9264 26.403 55.6014 24.378H59.8134L65.8885 42.9H62.4324L60.8664 38.094ZM55.1694 35.34H60.1914C58.8954 31.236 58.0314 28.536 57.6264 26.889H57.5994C57.1134 28.995 56.2224 31.884 55.1694 35.34Z" fill="white"/>
<path d="M34.2756 42.9V40.524L43.8336 27.105H34.7616V24.378H47.6676V27.051L38.2986 40.173H48.1266L47.6946 42.9H34.2756Z" fill="white"/>
</svg>
