<?xml version="1.0" encoding="UTF-8"?>
<svg xmlns="http://www.w3.org/2000/svg" viewBox="0 0 841.89 595.276">
  <defs>
    <style>
      .cls-1 {
        fill: #ffffff;
      }
    </style>
  </defs>
  <g id="Layer_1" data-name="Layer 1">
    <path class="cls-1" d="M161.854,158.967v59.145c-3.356,5.915-8.299,14.742-10.506,18.626-.351.53-.616.971-.793,1.323-.177.265-.265.442-.353.53-3.972,5.65-8.209,10.681-12.799,15.006-3.444,3.267-7.062,6.18-10.858,8.652-11.211,7.503-23.657,11.387-36.635,11.387v-5.031c4.767,0,9.269-.617,13.418-1.855,0,0,0,.088.088,0,4.06-1.323,7.858-3.088,11.388-5.384,2.295-1.501,4.502-3.267,6.621-5.297,8.916-8.386,15.448-20.391,19.95-34.25,6.532-19.156,9.093-41.754,9.093-62.764v-.088h11.388Z"/>
  </g>
  <g id="Layer_2" data-name="Layer 2">
    <g>
      <polygon class="cls-1" points="221.085 255.187 221.085 158.967 240.426 158.967 240.426 239.687 285.486 239.687 285.486 255.187 221.085 255.187"/>
      <rect class="cls-1" x="290.715" y="158.967" width="19.341" height="96.22"/>
      <polygon class="cls-1" points="323.044 255.187 323.044 158.967 338.15 158.967 395.914 230.262 388.283 231.682 388.283 158.967 407.495 158.967 407.495 255.187 392.247 255.187 335.322 183.376 342.385 181.955 342.385 255.187 323.044 255.187"/>
      <path class="cls-1" d="M473.289,158.989h-24.836l-36.294,96.208h20.739l7.618-20.548h40.71l7.489,20.548h20.867l-36.293-96.208ZM446.085,219.03l14.787-40.454,14.722,40.454h-29.509Z"/>
      <polygon class="cls-1" points="463.559 171.215 460.871 178.576 458.182 171.215 463.559 171.215"/>
      <polygon class="cls-1" points="215.004 362.058 215.004 356.635 277.713 273.585 218.684 273.585 218.684 265.838 289.862 265.838 289.862 271.261 227.295 354.311 291.27 354.311 291.27 362.058 215.004 362.058"/>
      <path class="cls-1" d="M338.419,265.822h-9.281l-37.894,94.159-.833,2.049h9.73l9.602-24.516h48.072l9.537,24.516h9.794l-38.727-96.208ZM312.751,329.896l20.996-53.321,20.931,53.321h-41.927Z"/>
      <polygon class="cls-1" points="335.475 272.287 333.746 276.575 332.082 272.287 335.475 272.287"/>
      <polygon class="cls-1" points="385.74 362.058 385.74 265.838 394.778 265.838 394.778 323.699 392.234 322.537 447.597 265.838 459.32 265.838 416.675 309.619 417.101 303.68 462.289 362.058 451.134 362.058 413.137 313.105 394.778 331.962 394.778 362.058 385.74 362.058"/>
      <path class="cls-1" d="M507.918,265.822h-9.345l-37.829,94.223-.833,1.985h9.73l9.602-24.516h48.008l9.602,24.516h9.73l-38.662-96.208ZM482.186,329.896l21.06-53.384,20.931,53.384h-41.991Z"/>
      <polygon class="cls-1" points="555.917 282.007 554.253 286.232 552.588 282.007 555.917 282.007"/>
      <path class="cls-1" d="M601.694,322.536c6.976-1.792,12.482-5.121,16.514-9.986,4.033-4.865,6.081-10.754,6.081-17.667,0-5.761-1.406-10.817-4.224-15.234-2.816-4.417-6.784-7.81-11.905-10.177-5.057-2.433-11.01-3.649-17.795-3.649h-35.142v96.208h9.025v-38.086h27.909l23.683,38.086h10.689l-24.835-39.494ZM590.683,316.198h-26.435v-42.631h26.435c4.866,0,9.155.897,12.868,2.689,3.647,1.728,6.529,4.225,8.576,7.361,2.113,3.136,3.136,6.85,3.136,11.138,0,4.352-1.024,8.065-3.136,11.33-2.047,3.201-4.929,5.696-8.576,7.489-3.713,1.728-8.001,2.625-12.868,2.625Z"/>
      <rect class="cls-1" x="638.254" y="265.838" width="9.038" height="96.22"/>
      <path class="cls-1" d="M703.918,265.822h-9.281l-38.727,96.208h9.73l9.602-24.516h48.072l9.537,24.516h9.794l-38.727-96.208ZM678.25,329.896l20.996-53.321,20.931,53.321h-41.927Z"/>
      <polygon class="cls-1" points="751.981 282.007 750.253 286.295 748.588 282.007 751.981 282.007"/>
    </g>
  </g>
  <g id="Layer_3" data-name="Layer 3">
    <path class="cls-1" d="M225.323,250.686v4.678c-33.368,0-60.558,59.409-60.558,109.903h-11.474v-123.408c.177-.177.263-.265.353-.442l.086-.088.442-.707.088-.177.265-.441c.088-.177.265-.529.53-.794l4.767-8.474,2.03-3.621v63.47c.265-.441.619-.971.881-1.413.353-.441.619-.883.884-1.323.442-.707.884-1.413,1.412-2.03,15.802-22.687,37.252-35.133,60.293-35.133Z"/>
  </g>
</svg>